<?xml version="1.0" standalone="no"?>
<!DOCTYPE svg PUBLIC "-//W3C//DTD SVG 20010904//EN"
 "http://www.w3.org/TR/2001/REC-SVG-20010904/DTD/svg10.dtd">
<svg version="1.0" xmlns="http://www.w3.org/2000/svg"
 width="512.000000pt" height="512.000000pt" viewBox="0 0 512.000000 512.000000"
 preserveAspectRatio="xMidYMid meet">
<metadata>
Created by potrace 1.14, written by Peter Selinger 2001-2017
</metadata>
<g transform="translate(0.000000,512.000000) scale(0.100000,-0.100000)"
fill="#000000" stroke="none">
<path d="M2923 5059 c-92 -19 -107 -49 -113 -228 l-5 -146 -1235 -1 c-679 0
-1251 -4 -1270 -9 -93 -21 -197 -97 -246 -180 -57 -97 -54 -14 -53 -1610 0
-1428 1 -1472 20 -1530 34 -107 114 -191 227 -240 46 -19 72 -20 980 -23 512
-1 932 -6 933 -10 5 -36 2 -526 -2 -534 -5 -7 -108 -11 -295 -12 -277 -1 -291
-2 -330 -23 -181 -96 -175 -354 9 -434 l52 -22 966 0 967 0 56 27 c179 88 180
334 2 429 -39 21 -52 22 -333 22 -188 0 -293 4 -294 10 0 6 -2 130 -2 277 l-2
268 935 2 c865 3 938 4 980 21 66 25 140 85 182 147 72 106 69 9 65 1651 -1
811 -5 1481 -8 1489 -16 53 -65 132 -104 171 -57 57 -131 94 -210 106 -33 4
-336 8 -672 8 -337 -1 -613 2 -614 5 0 3 -2 66 -3 140 -2 150 -12 181 -69 215
-26 16 -58 18 -258 19 -125 1 -241 -2 -256 -5z"/>
</g>
</svg>
